<svg xmlns="http://www.w3.org/2000/svg" width="125.888" height="44.964" viewBox="0 0 125.888 44.964">
  <g id="Group_32" data-name="Group 32" transform="translate(-144.543 -813.929)">
    <path id="Path_32" data-name="Path 32" d="M-7992.526-11739.542s15.885-.173,27.49-9.14c4.026-3.111,4.894-4.6,9.5-10.992,3.19-5.432,4.134-11.229,11.267-18.467a23.62,23.62,0,0,1,6.583-4.066,28.384,28.384,0,0,1,8.116-1.293h-62.955Z" transform="translate(8200 12597.929)" fill="none" stroke="#707070" stroke-width="1"/>
    <path id="Path_33" data-name="Path 33" d="M-7929.571-11739.542s-15.885-.173-27.49-9.14c-3.128-2.418-4.35-3.855-7.075-7.618-.556-.767-1.4-1.948-2.424-3.374-3.19-5.432-4.134-11.229-11.267-18.467a23.62,23.62,0,0,0-6.583-4.066,28.384,28.384,0,0,0-8.116-1.293h62.955Z" transform="translate(8137.071 12597.929)" fill="none" stroke="#707070" stroke-width="1"/>
  </g>
</svg>
