<svg xmlns="http://www.w3.org/2000/svg" width="25.18" height="31.231" viewBox="0 0 25.18 31.231">
  <defs>
    <style>
      .cls-1 {
        fill: none;
      }

      .cls-2, .cls-3 {
        stroke: none;
      }

      .cls-3 {
        fill: #e65c2d;
      }
    </style>
  </defs>
  <g id="Icon_material-delete" data-name="Icon material-delete" class="cls-1" transform="translate(-5.5 -2.5)">
    <path class="cls-2" d="M9.013,28.706a3.035,3.035,0,0,0,3.026,3.026h12.1a3.035,3.035,0,0,0,3.026-3.026V10.551H9.013ZM28.68,6.013H23.385L21.872,4.5H14.308L12.8,6.013H7.5V9.039H28.68Z"/>
    <path class="cls-3" d="M 24.14142799377441 31.73142242431641 C 25.80556869506836 31.73142242431641 27.16713905334473 30.36985397338867 27.16713905334473 28.70571327209473 L 27.16713905334473 10.55143356323242 L 9.012858390808105 10.55143356323242 L 9.012858390808105 28.70571327209473 C 9.012858390808105 30.36985397338867 10.37442779541016 31.73142242431641 12.0385684967041 31.73142242431641 L 24.14142799377441 31.73142242431641 M 28.67999839782715 9.038573265075684 L 28.67999839782715 6.012853145599365 L 23.3849983215332 6.012853145599365 L 21.87213897705078 4.500003337860107 L 14.30785846710205 4.500003337860107 L 12.79499816894531 6.012853145599365 L 7.499998092651367 6.012853145599365 L 7.499998092651367 9.038573265075684 L 28.67999839782715 9.038573265075684 M 24.14142799377441 33.73142242431641 L 12.0385684967041 33.73142242431641 C 9.267377853393555 33.73142242431641 7.012858390808105 31.47690391540527 7.012858390808105 28.70571327209473 L 7.012858390808105 11.03857326507568 L 5.499998092651367 11.03857326507568 L 5.499998092651367 4.012853145599365 L 11.96657180786133 4.012853145599365 L 13.47943782806396 2.500003099441528 L 22.70055770874023 2.500003099441528 L 24.21342468261719 4.012853145599365 L 30.67999839782715 4.012853145599365 L 30.67999839782715 11.03857326507568 L 29.16713905334473 11.03857326507568 L 29.16713905334473 28.70571327209473 C 29.16713905334473 31.47690391540527 26.91261863708496 33.73142242431641 24.14142799377441 33.73142242431641 Z"/>
  </g>
</svg>
