<svg xmlns="http://www.w3.org/2000/svg" width="27.988" height="25" viewBox="0 0 27.988 25">
  <defs>
    <style>
      .cls-1 {
        fill: none;
        stroke: inherit;
        stroke-linecap: round;
        stroke-linejoin: round;
        stroke-miterlimit: 10;
        stroke-width: 2px;
      }
    </style>
  </defs>
  <g id="Icons_heart" data-name="Icons/ heart" transform="translate(0.95 0.025)">
    <path id="Path" class="cls-1" d="M23.95,2.025h0a6.583,6.583,0,0,0-9.5,0l-1.3,1.4a.454.454,0,0,1-.5,0l-1.3-1.4a6.467,6.467,0,0,0-9.4,0h0a7.131,7.131,0,0,0,0,9.8l1.6,1.6,9.2,9.5a.454.454,0,0,0,.5,0l9.2-9.5,1.6-1.6A7.035,7.035,0,0,0,23.95,2.025Z" transform="translate(0.05 0.975)"/>
    <path id="Path-2" data-name="Path" class="cls-1" d="M0,3H3L5,1,7,5,9,0l2,3h3" transform="translate(6 8)"/>
  </g>
</svg>
