<svg xmlns="http://www.w3.org/2000/svg" width="22.185" height="26" viewBox="0 0 22.185 26">
  <defs>
    <style>
      .cls-1 {
        fill: none;
        stroke: #205072;
        stroke-linecap: round;
        stroke-linejoin: round;
        stroke-miterlimit: 10;
        stroke-width: 2px;
      }
    </style>
  </defs>
  <g id="Icons_beat" data-name="Icons/ beat" transform="translate(1 1)">
    <g id="Icons_beat-2" data-name="Icons/ beat">
      <path id="Path" class="cls-1" d="M0,.75H5.5" transform="translate(7.34 -0.75)"/>
      <path id="Path-2" data-name="Path" class="cls-1" d="M.75,3.692V0" transform="translate(9.342)"/>
      <path id="Path-3" data-name="Path" class="cls-1" d="M.75.75h0" transform="translate(9.342 5.712)"/>
      <path id="Path-4" data-name="Path" class="cls-1" d="M.75.75h0" transform="translate(9.342 20.481)"/>
      <path id="Path-5" data-name="Path" class="cls-1" d="M.75.75h0" transform="translate(16.682 13.096)"/>
      <path id="Path-6" data-name="Path" class="cls-1" d="M.75.75h0" transform="translate(2.002 13.096)"/>
      <path id="Path-7" data-name="Path" class="cls-1" d="M8.395.762h0a2.171,2.171,0,0,0-3.3,0l-.459.462c-.092.092-.092.092-.183,0L3.991.762a2.171,2.171,0,0,0-3.3,0h0a2.579,2.579,0,0,0,0,3.508l.55.554L4.45,8.238c.092.092.092.092.183.092L7.844,4.915l.55-.554A2.518,2.518,0,0,0,8.395.762Z" transform="translate(5.551 10.131)"/>
      <ellipse id="Oval" class="cls-1" cx="10.092" cy="10.154" rx="10.092" ry="10.154" transform="translate(0 3.692)"/>
    </g>
  </g>
</svg>
